HIERARCHY
ROOT mixamorig:Hips
{
	OFFSET -0.000008 104.274872 1.554316
	CHANNELS 6 Xposition Yposition Zposition Xrotation Yrotation Zrotation
	JOINT mixamorig:Spine
	{
		OFFSET -0.000005 10.181595 0.131519
		CHANNELS 6 Xposition Yposition Zposition Xrotation Yrotation Zrotation
		JOINT mixamorig:Spine1
		{
			OFFSET -0.000000 9.893959 -1.470707
			CHANNELS 6 Xposition Yposition Zposition Xrotation Yrotation Zrotation
			JOINT mixamorig:Spine2
			{
				OFFSET -0.000000 9.220757 -1.370641
				CHANNELS 6 Xposition Yposition Zposition Xrotation Yrotation Zrotation
				JOINT mixamorig:Neck
				{
					OFFSET 0.000001 16.740417 -2.049036
					CHANNELS 6 Xposition Yposition Zposition Xrotation Yrotation Zrotation
					JOINT mixamorig:Head
					{
						OFFSET 0.000000 9.617874 1.685006
						CHANNELS 6 Xposition Yposition Zposition Xrotation Yrotation Zrotation
						JOINT mixamorig:HeadTop_End
						{
							OFFSET 0.000002 22.037354 7.501101
							CHANNELS 6 Xposition Yposition Zposition Xrotation Yrotation Zrotation
							End Site
							{
								OFFSET 0.000168 2310.654297 -282.823242
							}
						}
					}
				}
				JOINT mixamorig:RightShoulder
				{
					OFFSET -4.569970 11.014908 -2.160885
					CHANNELS 6 Xposition Yposition Zposition Xrotation Yrotation Zrotation
					JOINT mixamorig:RightArm
					{
						OFFSET -10.592851 -0.524811 -2.232101
						CHANNELS 6 Xposition Yposition Zposition Xrotation Yrotation Zrotation
						JOINT mixamorig:RightForeArm
						{
							OFFSET -27.841511 0.000031 -0.000004
							CHANNELS 6 Xposition Yposition Zposition Xrotation Yrotation Zrotation
							JOINT mixamorig:RightHand
							{
								OFFSET -28.328831 -0.000015 0.000015
								CHANNELS 6 Xposition Yposition Zposition Xrotation Yrotation Zrotation
								JOINT mixamorig:RightHandThumb1
								{
									OFFSET -2.464806 -1.573990 2.681852
									CHANNELS 6 Xposition Yposition Zposition Xrotation Yrotation Zrotation
									JOINT mixamorig:RightHandThumb2
									{
										OFFSET -3.215179 -1.872803 1.924282
										CHANNELS 6 Xposition Yposition Zposition Xrotation Yrotation Zrotation
										JOINT mixamorig:RightHandThumb3
										{
											OFFSET -2.654831 -1.527969 1.512609
											CHANNELS 6 Xposition Yposition Zposition Xrotation Yrotation Zrotation
											JOINT mixamorig:RightHandThumb4
											{
												OFFSET -2.018814 -1.152008 1.108052
												CHANNELS 6 Xposition Yposition Zposition Xrotation Yrotation Zrotation
												End Site
												{
													OFFSET -188.809540 -114.533607 132.431396
												}
											}
										}
									}
								}
								JOINT mixamorig:RightHandIndex1
								{
									OFFSET -9.108284 -0.517868 2.259835
									CHANNELS 6 Xposition Yposition Zposition Xrotation Yrotation Zrotation
									JOINT mixamorig:RightHandIndex2
									{
										OFFSET -3.699989 0.000000 0.001215
										CHANNELS 6 Xposition Yposition Zposition Xrotation Yrotation Zrotation
										JOINT mixamorig:RightHandIndex3
										{
											OFFSET -2.850006 0.000031 -0.000522
											CHANNELS 6 Xposition Yposition Zposition Xrotation Yrotation Zrotation
											JOINT mixamorig:RightHandIndex4
											{
												OFFSET -2.772186 -0.000015 -0.000020
												CHANNELS 6 Xposition Yposition Zposition Xrotation Yrotation Zrotation
												End Site
												{
													OFFSET -277.218445 0.000000 -0.050231
												}
											}
										}
									}
								}
								JOINT mixamorig:RightHandMiddle1
								{
									OFFSET -9.532516 -0.000031 -0.000023
									CHANNELS 6 Xposition Yposition Zposition Xrotation Yrotation Zrotation
									JOINT mixamorig:RightHandMiddle2
									{
										OFFSET -3.700005 -0.000015 0.003713
										CHANNELS 6 Xposition Yposition Zposition Xrotation Yrotation Zrotation
										JOINT mixamorig:RightHandMiddle3
										{
											OFFSET -2.949974 0.000015 -0.002054
											CHANNELS 6 Xposition Yposition Zposition Xrotation Yrotation Zrotation
											JOINT mixamorig:RightHandMiddle4
											{
												OFFSET -2.946640 0.000000 -0.000156
												CHANNELS 6 Xposition Yposition Zposition Xrotation Yrotation Zrotation
												End Site
												{
													OFFSET -294.664337 0.000000 -0.113670
												}
											}
										}
									}
								}
								JOINT mixamorig:RightHandRing1
								{
									OFFSET -9.103600 -0.043076 -1.865134
									CHANNELS 6 Xposition Yposition Zposition Xrotation Yrotation Zrotation
									JOINT mixamorig:RightHandRing2
									{
										OFFSET -3.379288 0.000000 -0.001055
										CHANNELS 6 Xposition Yposition Zposition Xrotation Yrotation Zrotation
										JOINT mixamorig:RightHandRing3
										{
											OFFSET -2.889687 -0.000015 0.000379
											CHANNELS 6 Xposition Yposition Zposition Xrotation Yrotation Zrotation
											JOINT mixamorig:RightHandRing4
											{
												OFFSET -2.638809 -0.000015 0.000941
												CHANNELS 6 Xposition Yposition Zposition Xrotation Yrotation Zrotation
												End Site
												{
													OFFSET -263.880371 0.000000 0.516020
												}
											}
										}
									}
								}
								JOINT mixamorig:RightHandPinky1
								{
									OFFSET -8.076683 -0.486710 -3.806280
									CHANNELS 6 Xposition Yposition Zposition Xrotation Yrotation Zrotation
									JOINT mixamorig:RightHandPinky2
									{
										OFFSET -3.600014 -0.000015 -0.003747
										CHANNELS 6 Xposition Yposition Zposition Xrotation Yrotation Zrotation
										JOINT mixamorig:RightHandPinky3
										{
											OFFSET -2.099983 0.000000 -0.005739
											CHANNELS 6 Xposition Yposition Zposition Xrotation Yrotation Zrotation
											JOINT mixamorig:RightHandPinky4
											{
												OFFSET -2.115768 -0.000031 -0.003680
												CHANNELS 6 Xposition Yposition Zposition Xrotation Yrotation Zrotation
												End Site
												{
													OFFSET -211.577087 0.000000 -0.350686
												}
											}
										}
									}
								}
							}
						}
					}
				}
				JOINT mixamorig:LeftShoulder
				{
					OFFSET 4.570447 11.014725 -2.160855
					CHANNELS 6 Xposition Yposition Zposition Xrotation Yrotation Zrotation
					JOINT mixamorig:LeftArm
					{
						OFFSET 10.592371 -0.524597 -2.232119
						CHANNELS 6 Xposition Yposition Zposition Xrotation Yrotation Zrotation
						JOINT mixamorig:LeftForeArm
						{
							OFFSET 27.841532 -0.000031 0.000026
							CHANNELS 6 Xposition Yposition Zposition Xrotation Yrotation Zrotation
							JOINT mixamorig:LeftHand
							{
								OFFSET 28.328846 -0.000061 0.000022
								CHANNELS 6 Xposition Yposition Zposition Xrotation Yrotation Zrotation
								JOINT mixamorig:LeftHandThumb1
								{
									OFFSET 2.466141 -1.576172 2.681732
									CHANNELS 6 Xposition Yposition Zposition Xrotation Yrotation Zrotation
									JOINT mixamorig:LeftHandThumb2
									{
										OFFSET 3.217812 -1.872070 1.916482
										CHANNELS 6 Xposition Yposition Zposition Xrotation Yrotation Zrotation
										JOINT mixamorig:LeftHandThumb3
										{
											OFFSET 2.656029 -1.528778 1.514513
											CHANNELS 6 Xposition Yposition Zposition Xrotation Yrotation Zrotation
											JOINT mixamorig:LeftHandThumb4
											{
												OFFSET 2.020889 -1.154053 1.115139
												CHANNELS 6 Xposition Yposition Zposition Xrotation Yrotation Zrotation
												End Site
												{
													OFFSET 190.885437 -115.081749 130.048782
												}
											}
										}
									}
								}
								JOINT mixamorig:LeftHandIndex1
								{
									OFFSET 9.109314 -0.518021 2.259871
									CHANNELS 6 Xposition Yposition Zposition Xrotation Yrotation Zrotation
									JOINT mixamorig:LeftHandIndex2
									{
										OFFSET 3.699989 0.000000 -0.000322
										CHANNELS 6 Xposition Yposition Zposition Xrotation Yrotation Zrotation
										JOINT mixamorig:LeftHandIndex3
										{
											OFFSET 2.850006 0.000000 0.000352
											CHANNELS 6 Xposition Yposition Zposition Xrotation Yrotation Zrotation
											JOINT mixamorig:LeftHandIndex4
											{
												OFFSET 2.774864 -0.000031 -0.000027
												CHANNELS 6 Xposition Yposition Zposition Xrotation Yrotation Zrotation
												End Site
												{
													OFFSET 277.486267 0.000000 -0.009857
												}
											}
										}
									}
								}
								JOINT mixamorig:LeftHandMiddle1
								{
									OFFSET 9.533394 0.000061 0.000044
									CHANNELS 6 Xposition Yposition Zposition Xrotation Yrotation Zrotation
									JOINT mixamorig:LeftHandMiddle2
									{
										OFFSET 3.699989 -0.000015 -0.000231
										CHANNELS 6 Xposition Yposition Zposition Xrotation Yrotation Zrotation
										JOINT mixamorig:LeftHandMiddle3
										{
											OFFSET 2.949997 -0.000015 -0.000059
											CHANNELS 6 Xposition Yposition Zposition Xrotation Yrotation Zrotation
											JOINT mixamorig:LeftHandMiddle4
											{
												OFFSET 2.952896 0.000031 0.000063
												CHANNELS 6 Xposition Yposition Zposition Xrotation Yrotation Zrotation
												End Site
												{
													OFFSET 295.289337 0.000000 0.022810
												}
											}
										}
									}
								}
								JOINT mixamorig:LeftHandRing1
								{
									OFFSET 9.104523 -0.042999 -1.865074
									CHANNELS 6 Xposition Yposition Zposition Xrotation Yrotation Zrotation
									JOINT mixamorig:LeftHandRing2
									{
										OFFSET 3.150009 -0.000031 0.000043
										CHANNELS 6 Xposition Yposition Zposition Xrotation Yrotation Zrotation
										JOINT mixamorig:LeftHandRing3
										{
											OFFSET 2.949982 -0.000015 0.000040
											CHANNELS 6 Xposition Yposition Zposition Xrotation Yrotation Zrotation
											JOINT mixamorig:LeftHandRing4
											{
												OFFSET 2.644348 0.000000 0.000057
												CHANNELS 6 Xposition Yposition Zposition Xrotation Yrotation Zrotation
												End Site
												{
													OFFSET 264.434631 0.000000 0.012105
												}
											}
										}
									}
								}
								JOINT mixamorig:LeftHandPinky1
								{
									OFFSET 8.077789 -0.486847 -3.806259
									CHANNELS 6 Xposition Yposition Zposition Xrotation Yrotation Zrotation
									JOINT mixamorig:LeftHandPinky2
									{
										OFFSET 3.599953 0.000031 0.014727
										CHANNELS 6 Xposition Yposition Zposition Xrotation Yrotation Zrotation
										JOINT mixamorig:LeftHandPinky3
										{
											OFFSET 2.100021 0.000015 0.007705
											CHANNELS 6 Xposition Yposition Zposition Xrotation Yrotation Zrotation
											JOINT mixamorig:LeftHandPinky4
											{
												OFFSET 2.125504 0.000031 0.007517
												CHANNELS 6 Xposition Yposition Zposition Xrotation Yrotation Zrotation
												End Site
												{
													OFFSET 212.550781 0.000000 0.625752
												}
											}
										}
									}
								}
							}
						}
					}
				}
			}
		}
	}
	JOINT mixamorig:RightUpLeg
	{
		OFFSET -8.207787 -6.751648 -1.599560
		CHANNELS 6 Xposition Yposition Zposition Xrotation Yrotation Zrotation
		JOINT mixamorig:RightLeg
		{
			OFFSET -0.000002 -44.370117 0.345942
			CHANNELS 6 Xposition Yposition Zposition Xrotation Yrotation Zrotation
			JOINT mixamorig:RightFoot
			{
				OFFSET 0.000003 -44.423679 -3.043532
				CHANNELS 6 Xposition Yposition Zposition Xrotation Yrotation Zrotation
				JOINT mixamorig:RightToeBase
				{
					OFFSET -0.000002 -8.728671 10.710558
					CHANNELS 6 Xposition Yposition Zposition Xrotation Yrotation Zrotation
					JOINT mixamorig:RightToe_End
					{
						OFFSET -0.000001 -0.000679 9.278119
						CHANNELS 6 Xposition Yposition Zposition Xrotation Yrotation Zrotation
						End Site
						{
							OFFSET 0.000000 -0.067690 927.812134
						}
					}
				}
			}
		}
	}
	JOINT mixamorig:LeftUpLeg
	{
		OFFSET 8.207793 -6.751686 -1.599556
		CHANNELS 6 Xposition Yposition Zposition Xrotation Yrotation Zrotation
		JOINT mixamorig:LeftLeg
		{
			OFFSET -0.000004 -44.370014 0.346954
			CHANNELS 6 Xposition Yposition Zposition Xrotation Yrotation Zrotation
			JOINT mixamorig:LeftFoot
			{
				OFFSET -0.000001 -44.423672 -3.044401
				CHANNELS 6 Xposition Yposition Zposition Xrotation Yrotation Zrotation
				JOINT mixamorig:LeftToeBase
				{
					OFFSET -0.000002 -8.728669 10.710558
					CHANNELS 6 Xposition Yposition Zposition Xrotation Yrotation Zrotation
					JOINT mixamorig:LeftToe_End
					{
						OFFSET -0.000003 -0.000679 9.278133
						CHANNELS 6 Xposition Yposition Zposition Xrotation Yrotation Zrotation
						End Site
						{
							OFFSET 0.000000 -0.068021 927.813477
						}
					}
				}
			}
		}
	}
}
MOTION
Frames: 3
Frame Time: 0.033333
0.000006 104.270477 1.554256 0.000010 0.000003 -0.000113 -0.000005 10.181587 0.131522 0.000001 -0.000003 0.000084 -0.000000 9.893967 -1.470711 0.000001 0.000000 -0.000000 -0.000000 9.220802 -1.370642 0.000000 -0.000000 -0.000000 0.000001 16.740433 -2.049030 0.000000 -0.000000 -0.000000 0.000000 9.617859 1.685014 0.000000 0.000000 0.000000 0.000002 22.037384 7.501101 0.000000 -0.000000 0.000000 -4.569968 11.014880 -2.160881 0.000008 0.000001 -0.000038 -10.592873 -0.524770 -2.231895 73.615472 31.706998 -23.994277 -27.841522 -0.000003 0.000550 -54.962379 106.666265 69.882206 -28.328814 0.000019 0.000032 -0.000321 -0.000045 0.000007 -2.464425 -1.573928 2.682388 -29.595377 -151.563619 26.457426 -3.215262 -1.872530 1.924635 151.100464 33.487581 20.636595 -2.654972 -1.527874 1.513066 148.371762 26.967066 -34.148511 -2.018827 -1.151983 1.108060 0.000001 -0.000003 0.000002 -9.108397 -0.517572 2.260159 107.760236 16.580674 -22.647818 -3.700071 0.000315 0.001542 104.855452 12.340260 -15.967565 -2.850101 0.000369 -0.000204 105.033911 10.077112 -13.115989 -2.772156 0.000000 -0.000017 0.000000 -0.000000 0.000000 -9.532629 0.000247 0.000271 97.538373 19.361172 -22.195644 -3.700080 0.000331 0.003990 98.346582 12.577046 -14.427245 -2.950046 0.000343 -0.001772 100.048351 11.053244 -13.158411 -2.946630 0.000003 -0.000159 0.000002 -0.000001 -0.000001 -9.103731 -0.042787 -1.864841 93.334883 23.254998 -24.558686 -3.379359 0.000308 -0.000800 93.711978 11.253680 -12.020960 -2.889758 0.000360 0.000664 99.686112 6.001712 -7.163545 -2.638801 -0.000002 0.000941 -0.000004 0.000002 0.000003 -8.076771 -0.486403 -3.806056 79.483827 20.721346 -17.155765 -3.600052 0.000269 -0.003541 81.215423 10.342856 -8.560676 -2.100017 0.000311 -0.005517 84.712862 6.080849 -5.343542 -2.115776 -0.000055 -0.003681 0.000000 -0.000000 -0.000006 4.570446 11.014691 -2.160851 -0.000018 0.000010 -0.000021 10.592419 -0.524472 -2.232374 72.513530 -20.973587 15.461969 27.841818 0.000054 -0.000174 101.975851 -72.002386 83.775337 28.328846 -0.000028 0.000020 0.000025 -0.000088 0.000000 2.465929 -1.576118 2.681907 -46.330963 162.662198 6.638775 3.217800 -1.871753 1.916366 154.671765 -30.691680 1.806787 2.656087 -1.528586 1.514456 143.625040 -27.403798 38.065187 2.020891 -1.154069 1.115152 -0.000003 0.000005 0.000002 9.109362 -0.517852 2.259735 88.717375 -15.806390 15.448647 3.700044 0.000162 -0.000443 86.440764 -17.714253 16.678808 2.850071 0.000180 0.000208 85.394235 -14.602287 13.482836 2.774885 -0.000031 -0.000026 -0.000001 0.000001 0.000001 9.533454 0.000235 -0.000078 89.194348 -14.719640 14.507689 3.700041 0.000175 -0.000368 91.980477 -15.326702 15.856250 2.950070 0.000159 -0.000192 90.221485 -19.611182 19.688806 2.952861 -0.000014 0.000062 0.000003 0.000000 -0.000001 9.104580 -0.042833 -1.865231 87.657371 -14.133911 13.574756 3.150063 0.000221 -0.000087 96.503565 -13.567987 15.186608 2.950037 0.000174 -0.000060 97.914812 -15.685210 17.983128 2.644318 0.000046 0.000056 0.000003 -0.000000 -0.000000 8.077829 -0.486718 -3.806416 78.933894 -16.117339 13.784165 3.599989 0.000201 0.014578 83.543534 -12.854751 11.945788 2.100039 0.000207 0.007547 87.086968 -12.671042 12.509300 2.125521 -0.000031 0.007519 0.000001 -0.000001 -0.000001 -8.207786 -6.751667 -1.599560 -0.077001 -0.000003 0.000080 -0.000002 -44.370110 0.345938 0.153719 -0.000000 -0.000000 0.000000 -44.423679 -3.043532 -0.076700 0.000000 -0.000002 -0.000006 -8.728667 10.710559 -0.000009 -0.000000 -0.000000 -0.000001 -0.000679 9.278123 0.000000 -0.000000 -0.000000 8.207792 -6.751710 -1.599556 -0.074518 -0.000003 0.000081 -0.000002 -44.370014 0.346960 0.148822 0.000002 0.000000 -0.000001 -44.423664 -3.044403 -0.074314 0.000000 -0.000002 -0.000004 -8.728671 10.710558 0.000007 -0.000000 -0.000000 0.000000 -0.000680 9.278137 -0.000000 0.000000 -0.000001 
0.000006 104.270477 1.554256 0.000010 0.000003 -0.000113 -0.000005 10.181587 0.131522 0.000001 -0.000003 0.000084 -0.000000 9.893967 -1.470711 0.000001 0.000000 -0.000000 -0.000000 9.220802 -1.370642 0.000000 -0.000000 -0.000000 0.000001 16.740433 -2.049030 0.000000 -0.000000 -0.000000 0.000000 9.617859 1.685014 0.000000 0.000000 0.000000 0.000002 22.037384 7.501101 0.000000 -0.000000 0.000000 -4.569968 11.014880 -2.160881 0.000008 0.000001 -0.000038 -10.592876 -0.524753 -2.231912 73.666029 26.288903 -19.842412 -27.841516 -0.000001 0.000544 -51.412664 105.542788 64.714075 -28.328823 0.000021 0.000025 -0.000317 -0.000043 0.000007 -2.464413 -1.573861 2.682350 -38.869473 -155.794033 9.626856 -3.215242 -1.872502 1.924613 146.230279 33.055022 28.361563 -2.654960 -1.527871 1.513056 145.660382 28.321869 -23.336593 -2.018845 -1.152034 1.108065 -0.000002 -0.000000 0.000000 -9.108386 -0.517561 2.260169 108.401796 15.906442 -21.990849 -3.700060 0.000308 0.001555 105.732694 13.729129 -18.035898 -2.850095 0.000365 -0.000207 105.308628 11.853190 -15.493120 -2.772156 -0.000001 -0.000017 -0.000000 0.000003 0.000000 -9.532602 0.000260 0.000258 96.811620 18.285791 -20.716288 -3.700082 0.000318 0.003995 97.803289 13.501257 -15.345366 -2.950056 0.000343 -0.001763 100.600210 12.789353 -15.367593 -2.946642 0.000015 -0.000154 0.000001 -0.000001 0.000001 -9.103701 -0.042773 -1.864862 93.577014 22.037626 -23.370874 -3.379343 0.000318 -0.000793 95.790733 11.875770 -13.150200 -2.889754 0.000358 0.000665 102.500137 8.184646 -10.246033 -2.638813 -0.000028 0.000940 0.000001 -0.000001 -0.000002 -8.076767 -0.486422 -3.806039 79.131846 22.500019 -18.534620 -3.600072 0.000260 -0.003545 82.779728 12.301200 -10.521196 -2.100034 0.000306 -0.005520 86.432827 7.075924 -6.439142 -2.115772 -0.000042 -0.003687 0.000006 0.000000 -0.000005 4.570446 11.014691 -2.160851 -0.000018 0.000010 -0.000021 10.592388 -0.524482 -2.232347 72.841065 -8.516096 6.288690 27.841839 0.000055 -0.000194 104.166805 -72.341703 86.371307 28.328823 -0.000029 0.000022 0.000020 -0.000088 0.000000 2.466113 -1.576172 2.681900 -21.606325 156.968129 -45.010035 3.217816 -1.871731 1.916381 162.357285 -29.547053 9.862079 2.656121 -1.528659 1.514469 143.402567 -26.629941 49.704437 2.020902 -1.154068 1.115144 0.000001 0.000003 0.000004 9.109380 -0.517856 2.259737 90.381885 -18.040638 18.146602 3.700029 0.000178 -0.000466 88.141836 -12.164642 11.795397 2.850063 0.000211 0.000200 88.025477 -9.380727 9.063024 2.774870 -0.000032 -0.000027 -0.000002 0.000002 0.000001 9.533467 0.000209 -0.000073 90.811115 -17.469315 17.705368 3.700042 0.000208 -0.000372 93.309564 -10.292673 10.898707 2.950066 0.000203 -0.000209 95.080857 -11.197050 12.232368 2.952865 -0.000013 0.000069 0.000006 0.000000 0.000000 9.104582 -0.042843 -1.865217 90.345439 -16.675796 16.777178 3.150051 0.000222 -0.000105 95.952048 -9.746653 10.811603 2.950025 0.000202 -0.000089 98.728889 -9.674287 11.265460 2.644331 0.000015 0.000057 0.000001 0.000001 0.000001 8.077845 -0.486726 -3.806398 80.741736 -19.207371 16.887895 3.599989 0.000184 0.014569 83.657830 -14.984650 13.892155 2.100035 0.000206 0.007544 86.776017 -11.246192 11.086182 2.125498 -0.000017 0.007521 -0.000001 0.000001 -0.000001 -8.207786 -6.751667 -1.599560 -0.077001 -0.000003 0.000080 -0.000002 -44.370110 0.345938 0.153719 -0.000000 -0.000000 0.000000 -44.423679 -3.043532 -0.076700 0.000000 -0.000002 -0.000006 -8.728667 10.710559 -0.000009 -0.000000 -0.000000 -0.000001 -0.000679 9.278123 0.000000 -0.000000 -0.000000 8.207792 -6.751710 -1.599556 -0.074518 -0.000003 0.000081 -0.000002 -44.370014 0.346960 0.148822 0.000002 0.000000 -0.000001 -44.423664 -3.044403 -0.074314 0.000000 -0.000002 -0.000004 -8.728671 10.710558 0.000007 -0.000000 -0.000000 0.000000 -0.000680 9.278137 -0.000000 0.000000 -0.000001 
0.000006 104.270477 1.554256 0.000010 0.000003 -0.000113 -0.000005 10.181587 0.131522 0.000001 -0.000003 0.000084 -0.000000 9.893967 -1.470711 0.000001 0.000000 -0.000000 -0.000000 9.220802 -1.370642 0.000000 -0.000000 -0.000000 0.000001 16.740433 -2.049030 0.000000 -0.000000 -0.000000 0.000000 9.617859 1.685014 0.000000 0.000000 0.000000 0.000002 22.037384 7.501101 0.000000 -0.000000 0.000000 -4.569968 11.014880 -2.160881 0.000008 0.000001 -0.000038 -10.592864 -0.524793 -2.231851 73.816129 40.382998 -30.880634 -27.841539 0.000007 0.000574 -50.619034 102.779307 61.265704 -28.328835 0.000009 0.000025 -0.000321 -0.000046 0.000007 -2.464418 -1.573889 2.682341 -36.980297 -154.256530 13.040610 -3.215245 -1.872494 1.924610 146.279566 33.079019 28.438300 -2.654957 -1.527860 1.513044 145.390672 28.406238 -22.554487 -2.018820 -1.151993 1.108067 -0.000005 -0.000004 0.000005 -9.108382 -0.517562 2.260155 108.636816 15.805022 -21.945061 -3.700063 0.000306 0.001564 106.326484 13.457149 -17.869098 -2.850084 0.000341 -0.000193 106.006824 11.771636 -15.580614 -2.772141 0.000001 -0.000019 0.000000 0.000001 0.000000 -9.532606 0.000258 0.000253 97.139627 18.165144 -20.697625 -3.700069 0.000326 0.004000 98.598528 13.027410 -15.011615 -2.950071 0.000329 -0.001768 101.868932 12.884846 -15.831016 -2.946639 0.000000 -0.000155 0.000001 0.000001 -0.000001 -9.103712 -0.042778 -1.864850 93.396860 22.040459 -23.302375 -3.379327 0.000303 -0.000785 96.940069 11.982811 -13.536424 -2.889773 0.000340 0.000662 103.919327 8.770553 -11.255337 -2.638807 -0.000015 0.000940 0.000001 -0.000001 -0.000001 -8.076790 -0.486410 -3.806036 78.962369 22.827650 -18.752730 -3.600084 0.000257 -0.003529 82.840906 13.369235 -11.473266 -2.100032 0.000296 -0.005515 86.694717 8.211749 -7.538039 -2.115771 -0.000043 -0.003681 0.000001 -0.000001 -0.000002 4.570446 11.014691 -2.160851 -0.000018 0.000010 -0.000021 10.592436 -0.524466 -2.232379 72.475650 -25.338426 18.711351 27.841829 0.000047 -0.000193 105.814568 -75.026739 90.872744 28.328840 -0.000028 0.000020 0.000026 -0.000089 -0.000001 2.466228 -1.576121 2.681857 -1.660409 160.389576 -80.507132 3.217843 -1.871804 1.916389 162.460120 -25.683827 26.600033 2.656105 -1.528625 1.514454 145.554296 -26.384705 45.158926 2.020883 -1.154068 1.115149 0.000002 -0.000003 0.000003 9.109394 -0.517846 2.259748 93.508247 -19.569493 20.766301 3.700034 0.000180 -0.000472 89.431164 -12.245844 12.142368 2.850035 0.000222 0.000198 88.377484 -10.029996 9.750050 2.774879 -0.000028 -0.000023 -0.000001 -0.000000 0.000000 9.533469 0.000218 -0.000098 92.066934 -18.970700 19.644949 3.700039 0.000203 -0.000379 94.271118 -10.284354 11.073479 2.950055 0.000198 -0.000202 95.589297 -10.912533 12.027940 2.952873 -0.000030 0.000065 0.000001 -0.000001 0.000000 9.104603 -0.042847 -1.865219 91.137605 -18.290202 18.652652 3.150035 0.000230 -0.000088 95.997516 -10.624802 11.793639 2.950022 0.000207 -0.000094 98.316659 -9.869549 11.409647 2.644317 0.000014 0.000057 -0.000003 -0.000001 0.000000 8.077851 -0.486723 -3.806398 81.303601 -20.370305 18.065606 3.600028 0.000171 0.014562 82.481761 -16.749780 15.173439 2.100047 0.000186 0.007543 85.645074 -12.672465 12.201598 2.125510 -0.000016 0.007514 -0.000002 0.000001 0.000000 -8.207786 -6.751667 -1.599560 -0.077001 -0.000003 0.000080 -0.000002 -44.370110 0.345938 0.153719 -0.000000 -0.000000 0.000000 -44.423679 -3.043532 -0.076700 0.000000 -0.000002 -0.000006 -8.728667 10.710559 -0.000009 -0.000000 -0.000000 -0.000001 -0.000679 9.278123 0.000000 -0.000000 -0.000000 8.207792 -6.751710 -1.599556 -0.074518 -0.000003 0.000081 -0.000002 -44.370014 0.346960 0.148822 0.000002 0.000000 -0.000001 -44.423664 -3.044403 -0.074314 0.000000 -0.000002 -0.000004 -8.728671 10.710558 0.000007 -0.000000 -0.000000 0.000000 -0.000680 9.278137 -0.000000 0.000000 -0.000001 
